<svg width="94" height="109" viewBox="0 0 94 109" fill="none" xmlns="http://www.w3.org/2000/svg">
<path d="M46.9854 54.1154L62.79 27.1528L78.1821 54.3372L46.9854 54.1154Z" fill="#2082BF"/>
<path d="M0 80.8087L15.8046 53.8778L31.1967 81.0464L0 80.8087Z" fill="#104B7E"/>
<path d="M62.7901 27.1528L46.9854 54.1154L31.6093 26.931L62.7901 27.1528Z" fill="white"/>
<path d="M62.3775 81.284L46.5887 108.215L31.1967 81.0464L62.3775 81.284Z" fill="#103D64"/>
<path d="M15.8046 53.8778L31.6092 26.931L46.9854 54.1154L15.8046 53.8778Z" fill="#94D2F0"/>
<path d="M62.3775 81.284L78.1821 54.3372L93.5741 81.5216L62.3775 81.284Z" fill="#104B7E"/>
<path d="M78.1821 54.3372L62.3775 81.2682L46.9854 54.1154L78.1821 54.3372Z" fill="#0972B4"/>
<path d="M31.6092 26.931L15.8046 53.8778L0.412537 26.6933L31.6092 26.931Z" fill="#1369A5"/>
<path d="M31.1967 81.0464L46.9854 54.1154L62.3775 81.2682L31.1967 81.0464Z" fill="#2797D0"/>
<path d="M31.6093 26.931L47.398 0L62.7901 27.1528L31.6093 26.931Z" fill="#2082BF"/>
<path d="M46.9854 54.1154L31.1967 81.0464L15.8046 53.8778L46.9854 54.1154Z" fill="#3CAFDC"/>
<path d="M93.9867 27.4062L78.1821 54.3372L62.79 27.1528L93.9867 27.4062Z" fill="#1369A5"/>
<path d="M0.412537 26.6933L47.398 0L31.6092 26.931L0.412537 26.6933Z" fill="#1369A5"/>
<path d="M0.412562 26.6933L0 80.8087L15.8046 53.8778L0.412562 26.6933Z" fill="#104B7E"/>
<path d="M0 80.8087L46.5887 108.215L31.1967 81.0464L0 80.8087Z" fill="#103D64"/>
<path d="M46.5887 108.215L93.5741 81.5216L62.3774 81.284L46.5887 108.215Z" fill="#104B7E"/>
<path d="M93.5741 81.5216L93.9867 27.4062L78.1821 54.3372L93.5741 81.5216Z" fill="#1369A5"/>
<path d="M93.9867 27.4062L47.398 0L62.7901 27.1528L93.9867 27.4062Z" fill="#2082BF"/>
</svg>
