<?xml version="1.0" encoding="UTF-8"?>
<svg id="Layer_2" data-name="Layer 2" xmlns="http://www.w3.org/2000/svg" viewBox="0 0 225.61 121.83">
  <defs>
    <style>
      .cls-1 {
        fill: #231f20;
      }

      .cls-2 {
        fill: #94d2f0;
      }

      .cls-3 {
        fill: #2082bf;
      }

      .cls-4 {
        fill: #2797d0;
      }

      .cls-5 {
        fill: #103d64;
      }

      .cls-6 {
        fill: #fff;
      }

      .cls-7 {
        fill: #104b7e;
      }

      .cls-8 {
        fill: #0972b4;
      }

      .cls-9 {
        fill: #1369a5;
      }

      .cls-10 {
        fill: #3cafdc;
      }
    </style>
  </defs>
  <g id="Layer_1-2" data-name="Layer 1">
    <g>
      <g>
        <polygon class="cls-3" points="112.8 34.16 122.76 17.14 132.46 34.3 112.8 34.16"/>
        <polygon class="cls-7" points="83.19 51.01 93.15 34.01 102.85 51.16 83.19 51.01"/>
        <polygon class="cls-6" points="122.76 17.14 112.8 34.16 103.11 17 122.76 17.14"/>
        <polygon class="cls-5" points="122.5 51.31 112.55 68.31 102.85 51.16 122.5 51.31"/>
        <polygon class="cls-2" points="93.15 34.01 103.11 17 112.8 34.16 93.15 34.01"/>
        <polygon class="cls-7" points="122.5 51.31 132.46 34.3 142.16 51.46 122.5 51.31"/>
        <polygon class="cls-8" points="132.46 34.3 122.5 51.3 112.8 34.16 132.46 34.3"/>
        <polygon class="cls-9" points="103.11 17 93.15 34.01 83.45 16.85 103.11 17"/>
        <polygon class="cls-4" points="102.85 51.16 112.8 34.16 122.5 51.3 102.85 51.16"/>
        <polygon class="cls-3" points="103.11 17 113.06 0 122.76 17.14 103.11 17"/>
        <polygon class="cls-10" points="112.8 34.16 102.85 51.16 93.15 34.01 112.8 34.16"/>
        <polygon class="cls-9" points="142.42 17.3 132.46 34.3 122.76 17.14 142.42 17.3"/>
        <polygon class="cls-9" points="83.45 16.85 113.06 0 103.11 17 83.45 16.85"/>
        <polygon class="cls-7" points="83.45 16.85 83.19 51.01 93.15 34.01 83.45 16.85"/>
        <polygon class="cls-5" points="83.19 51.01 112.55 68.31 102.85 51.16 83.19 51.01"/>
        <polygon class="cls-7" points="112.55 68.31 142.16 51.46 122.5 51.31 112.55 68.31"/>
        <polygon class="cls-9" points="142.16 51.46 142.42 17.3 132.46 34.3 142.16 51.46"/>
        <polygon class="cls-3" points="142.42 17.3 113.06 0 122.76 17.14 142.42 17.3"/>
      </g>
      <g>
        <polygon class="cls-1" points="21.48 87.34 21.37 87.34 21.33 87.44 13.63 105.43 5.94 87.44 5.89 87.34 5.79 87.34 .16 87.34 0 87.34 0 87.5 0 112.18 0 112.35 .16 112.35 5.11 112.35 5.28 112.35 5.28 112.18 5.28 96.96 11.61 112.24 11.65 112.35 11.76 112.35 15.51 112.35 15.62 112.35 15.66 112.24 21.95 96.96 21.95 112.18 21.95 112.35 22.12 112.35 27.07 112.35 27.23 112.35 27.23 112.18 27.23 87.5 27.23 87.34 27.07 87.34 21.48 87.34"/>
        <path class="cls-1" d="M44.62,93.48c-1.47-.8-3.14-1.2-5-1.2s-3.64.41-5.13,1.24c-1.48.83-2.64,2-3.46,3.54-.83,1.53-1.24,3.31-1.24,5.34s.42,3.77,1.26,5.3c.84,1.53,2,2.72,3.5,3.55,1.5.84,3.19,1.26,5.07,1.26,2.33,0,4.3-.61,5.9-1.82,1.6-1.21,2.69-2.76,3.25-4.65h-5.34c-.78,1.58-2.09,2.37-3.92,2.37-1.27,0-2.35-.4-3.22-1.2-.87-.8-1.37-1.91-1.48-3.32h14.32c.09-.57.14-1.2.14-1.91,0-1.91-.41-3.6-1.22-5.07s-1.96-2.61-3.43-3.41ZM34.85,100.55c.19-1.32.7-2.35,1.54-3.09.84-.74,1.87-1.11,3.09-1.11,1.3,0,2.39.38,3.29,1.15.9.77,1.36,1.79,1.38,3.06h-9.3Z"/>
        <path class="cls-1" d="M65.55,93.48c-1.47-.8-3.14-1.2-5-1.2s-3.64.41-5.13,1.24c-1.48.83-2.64,2-3.46,3.54-.83,1.53-1.24,3.31-1.24,5.34s.42,3.77,1.26,5.3c.84,1.53,2,2.72,3.5,3.55,1.5.84,3.19,1.26,5.07,1.26,2.33,0,4.3-.61,5.9-1.82,1.6-1.21,2.69-2.76,3.25-4.65h-5.34c-.78,1.58-2.09,2.37-3.92,2.37-1.27,0-2.35-.4-3.22-1.2-.87-.8-1.37-1.91-1.48-3.32h14.32c.09-.57.14-1.2.14-1.91,0-1.91-.41-3.6-1.22-5.07s-1.96-2.61-3.43-3.41ZM55.78,100.55c.19-1.32.7-2.35,1.54-3.09.84-.74,1.87-1.11,3.09-1.11,1.3,0,2.39.38,3.29,1.15.9.77,1.36,1.79,1.38,3.06h-9.3Z"/>
        <path class="cls-1" d="M78.68,87.75l-4.98,4.84h-2.33v4.07h2.33v9.44c0,4.05,2.09,6.08,6.26,6.08h3.11v-4.17h-2.3c-.75,0-1.29-.15-1.61-.44-.32-.29-.48-.77-.48-1.43v-9.47h4.38v-4.07h-4.38v-4.84Z"/>
        <rect class="cls-1" x="85.75" y="92.59" width="4.95" height="19.59"/>
        <path class="cls-1" d="M88.27,84.46c-.87,0-1.6.28-2.17.83-.58.55-.87,1.24-.87,2.07s.29,1.51.87,2.07c.58.55,1.3.83,2.17.83s1.6-.28,2.17-.83c.58-.55.87-1.24.87-2.07s-.29-1.51-.87-2.07c-.58-.55-1.3-.83-2.17-.83Z"/>
        <path class="cls-1" d="M105.55,92.31c-1.23,0-2.35.24-3.38.72-1.02.48-1.87,1.15-2.53,2v-2.44h-4.95v19.59h4.95v-10.82c0-1.56.39-2.75,1.18-3.59.79-.84,1.87-1.26,3.23-1.26s2.4.42,3.18,1.26c.78.84,1.17,2.03,1.17,3.59v10.82h4.95v-11.49c0-2.64-.72-4.7-2.16-6.17-1.44-1.47-3.32-2.21-5.66-2.21Z"/>
        <path class="cls-1" d="M131.33,95.39c-.64-.92-1.51-1.67-2.62-2.25-1.11-.58-2.39-.87-3.85-.87-1.67,0-3.19.41-4.54,1.24-1.36.83-2.43,2-3.22,3.54-.79,1.53-1.18,3.29-1.18,5.27s.39,3.78,1.18,5.32c.79,1.54,1.87,2.74,3.23,3.59,1.37.85,2.87,1.27,4.52,1.27,1.44,0,2.72-.31,3.84-.92,1.12-.61,2-1.38,2.63-2.3v3.04c0,1.74-.45,3.05-1.34,3.91-.9.86-2.06,1.29-3.5,1.29-1.23,0-2.27-.27-3.13-.8-.86-.53-1.42-1.24-1.68-2.14h-4.91c.24,2.24,1.24,4.01,3.02,5.3,1.78,1.3,4.06,1.94,6.84,1.94,2.07,0,3.84-.42,5.3-1.26,1.46-.84,2.56-1.97,3.29-3.39.73-1.43,1.1-3.05,1.1-4.86v-19.73h-4.98v2.79ZM130.62,105.48c-.47.86-1.11,1.52-1.91,1.98-.8.46-1.66.69-2.58.69s-1.74-.24-2.53-.71c-.79-.47-1.43-1.15-1.91-2.03-.48-.88-.72-1.91-.72-3.09s.24-2.2.72-3.06c.48-.86,1.11-1.51,1.89-1.96s1.63-.67,2.55-.67,1.78.23,2.58.69c.8.46,1.44,1.12,1.91,1.98.47.86.71,1.89.71,3.09s-.24,2.23-.71,3.09Z"/>
        <polygon class="cls-1" points="163.96 87.3 163.79 87.3 163.79 87.47 163.79 103.89 152.89 87.38 152.84 87.3 152.75 87.3 147.8 87.3 147.64 87.3 147.64 87.47 147.64 112.18 147.64 112.35 147.8 112.35 152.75 112.35 152.91 112.35 152.91 112.18 152.91 95.79 163.82 112.27 163.87 112.35 163.96 112.35 168.91 112.35 169.07 112.35 169.07 112.18 169.07 87.47 169.07 87.3 168.91 87.3 163.96 87.3"/>
        <path class="cls-1" d="M186.87,93.53c-1.53-.84-3.24-1.26-5.13-1.26s-3.59.42-5.13,1.26c-1.53.84-2.74,2.02-3.62,3.55-.88,1.53-1.33,3.3-1.33,5.3s.43,3.77,1.29,5.3c.86,1.53,2.04,2.72,3.55,3.55,1.51.84,3.21,1.26,5.09,1.26s3.64-.42,5.18-1.26c1.54-.84,2.77-2.02,3.68-3.55.91-1.53,1.36-3.3,1.36-5.3s-.44-3.77-1.33-5.3c-.88-1.53-2.09-2.72-3.62-3.55ZM186.02,105.57c-.47.87-1.1,1.53-1.89,1.96-.79.44-1.63.65-2.53.65-1.41,0-2.59-.5-3.52-1.5-.93-1-1.4-2.43-1.4-4.3s.48-3.29,1.43-4.3,2.14-1.5,3.55-1.5,2.61.5,3.59,1.5c.98,1,1.47,2.43,1.47,4.3,0,1.25-.24,2.31-.71,3.18Z"/>
        <path class="cls-1" d="M200.33,87.75l-4.99,4.84h-2.33v4.07h2.33v9.44c0,4.05,2.09,6.08,6.26,6.08h3.11v-4.17h-2.3c-.75,0-1.29-.15-1.61-.44-.32-.29-.48-.77-.48-1.43v-9.47h4.38v-4.07h-4.38v-4.84Z"/>
        <path class="cls-1" d="M225.61,101.96c0-1.91-.41-3.6-1.22-5.07s-1.96-2.61-3.43-3.41c-1.47-.8-3.14-1.2-5-1.2s-3.64.41-5.13,1.24c-1.48.83-2.64,2-3.46,3.54-.83,1.53-1.24,3.31-1.24,5.34s.42,3.77,1.26,5.3c.84,1.53,2,2.72,3.5,3.55,1.5.84,3.19,1.26,5.07,1.26,2.33,0,4.3-.61,5.9-1.82,1.6-1.21,2.69-2.76,3.25-4.65h-5.34c-.78,1.58-2.09,2.37-3.92,2.37-1.27,0-2.35-.4-3.22-1.2-.87-.8-1.37-1.91-1.48-3.32h14.32c.09-.57.14-1.2.14-1.91ZM211.19,100.55c.19-1.32.7-2.35,1.54-3.09.84-.74,1.87-1.11,3.09-1.11,1.3,0,2.39.38,3.29,1.15.9.77,1.35,1.79,1.38,3.06h-9.3Z"/>
      </g>
    </g>
  </g>
</svg>